<svg width="128" height="128" viewBox="0 0 128 128" fill="none" xmlns="http://www.w3.org/2000/svg">
<g clip-path="url(#clip0_103_28)">
<g clip-path="url(#clip1_103_28)">
<path d="M60 28.6667C60 32 59.5128 35.1528 58.5385 38.125C57.5641 41.0972 55.9487 43.6667 53.6923 45.8333C51.4359 48 48.7436 49.0833 45.6154 49.0833C41.718 49.0833 38.1795 47.4861 35 44.2917C31.8205 41.0972 29.4615 37.3333 27.9231 33C26.3846 28.6667 25.6154 24.4722 25.6154 20.4167C25.6154 17.0833 26.1026 13.9306 27.0769 10.9583C28.0513 7.98611 29.6667 5.41667 31.9231 3.25C34.1795 1.08333 36.8718 0 40 0C43.9487 0 47.5 1.59722 50.6538 4.79167C53.8077 7.98611 56.1538 11.7361 57.6923 16.0417C59.2308 20.3472 60 24.5556 60 28.6667ZM33.6923 68.9167C33.6923 73.3611 32.6154 77.2222 30.4615 80.5C28.3077 83.7778 25.2564 85.4167 21.3077 85.4167C17.4103 85.4167 13.7821 83.875 10.4231 80.7917C7.0641 77.7083 4.48718 74 2.69231 69.6667C0.897436 65.3333 0 61.1111 0 57C0 52.5556 1.07692 48.6806 3.23077 45.375C5.38462 42.0694 8.4359 40.4167 12.3846 40.4167C16.2821 40.4167 19.9103 41.9583 23.2692 45.0417C26.6282 48.125 29.2051 51.8472 31 56.2083C32.7949 60.5694 33.6923 64.8056 33.6923 68.9167ZM64 66.6667C70.0513 66.6667 76.5897 69.375 83.6154 74.7917C90.641 80.2083 96.5128 86.7917 101.231 94.5417C105.949 102.292 108.308 109.361 108.308 115.75C108.308 118.306 107.872 120.431 107 122.125C106.128 123.819 104.885 125.069 103.269 125.875C101.654 126.681 100 127.236 98.3077 127.542C96.6154 127.847 94.6667 128 92.4615 128C88.9744 128 84.1667 126.75 78.0385 124.25C71.9103 121.75 67.2308 120.5 64 120.5C60.6154 120.5 55.6795 121.736 49.1923 124.208C42.7051 126.681 37.5641 127.917 33.7692 127.917C24.3846 127.917 19.6923 123.861 19.6923 115.75C19.6923 110.972 21.1282 105.653 24 99.7917C26.8718 93.9306 30.4487 88.5833 34.7308 83.75C39.0128 78.9167 43.8205 74.8611 49.1538 71.5833C54.4872 68.3056 59.4359 66.6667 64 66.6667ZM82.3846 49.0833C79.2564 49.0833 76.5641 48 74.3077 45.8333C72.0513 43.6667 70.4359 41.0972 69.4615 38.125C68.4872 35.1528 68 32 68 28.6667C68 24.5556 68.7692 20.3472 70.3077 16.0417C71.8462 11.7361 74.1923 7.98611 77.3462 4.79167C80.5 1.59722 84.0513 0 88 0C91.1282 0 93.8205 1.08333 96.0769 3.25C98.3333 5.41667 99.9487 7.98611 100.923 10.9583C101.897 13.9306 102.385 17.0833 102.385 20.4167C102.385 24.4722 101.615 28.6667 100.077 33C98.5385 37.3333 96.1795 41.0972 93 44.2917C89.8205 47.4861 86.2821 49.0833 82.3846 49.0833ZM115.615 40.4167C119.564 40.4167 122.615 42.0694 124.769 45.375C126.923 48.6806 128 52.5556 128 57C128 61.1111 127.103 65.3333 125.308 69.6667C123.513 74 120.936 77.7083 117.577 80.7917C114.218 83.875 110.59 85.4167 106.692 85.4167C102.744 85.4167 99.6923 83.7778 97.5385 80.5C95.3846 77.2222 94.3077 73.3611 94.3077 68.9167C94.3077 64.8056 95.2051 60.5694 97 56.2083C98.7949 51.8472 101.372 48.125 104.731 45.0417C108.09 41.9583 111.718 40.4167 115.615 40.4167Z" fill="black"/>
</g>
</g>
<defs>
<clipPath id="clip0_103_28">
<rect width="128" height="128" fill="white"/>
</clipPath>
<clipPath id="clip1_103_28">
<rect width="128" height="128" fill="white"/>
</clipPath>
</defs>
</svg>
