<svg xmlns="http://www.w3.org/2000/svg" version="1.1" xmlns:xlink="http://www.w3.org/1999/xlink" xmlns:svgjs="http://svgjs.com/svgjs" width="96" height="96"><svg width="96" height="96" viewBox="0 0 96 96" fill="none" xmlns="http://www.w3.org/2000/svg">
<path d="M24.0919 80.9866C20.455 73.0826 21.0953 66.0447 25.6529 58.9156C29.1188 53.4941 31.774 47.5238 34.4743 41.6525C37.0335 36.0882 40.2299 31.4514 46.8819 30.7406C53.7214 30.0098 58.5313 33.0154 62.3647 38.6597C65.1319 42.7339 68.6237 46.3748 72.1216 49.8805C77.6705 55.4418 81.1621 61.6926 80.6211 69.8172C79.9097 80.5003 70.5396 85.8636 60.9356 81.0009C53.1785 77.0734 53.1785 77.0734 46.7253 83.0126C39.286 89.8592 30.4081 89.1889 24.0919 80.9866Z" fill="#1D0D05"></path>
<path d="M84.8883 33.5653C85.2772 37.4489 86.3596 41.2422 85.4078 44.4276C84.7741 46.5486 81.2893 49.0078 78.9865 49.1057C76.6763 49.204 73.71 47.0065 72.038 44.9832C70.6031 43.2468 70.3704 40.3698 69.992 37.9372C69.1161 32.3071 70.9378 28.4488 74.7904 27.166C78.6627 25.8767 81.8105 27.7954 84.8883 33.5653Z" fill="#1D0D05"></path>
<path d="M11.376 45.4622C13.2755 42.1264 14.6192 38.7129 17.0068 36.3578C18.5854 34.8006 21.8994 33.8119 23.9968 34.3342C25.7933 34.7814 28.0558 37.669 28.1785 39.6001C28.411 43.2599 27.8551 47.239 26.5296 50.6604C24.8645 54.9582 19.5585 57.0113 15.7865 55.5826C11.1779 53.837 10.388 50.1909 11.376 45.4622Z" fill="#1D0D05"></path>
<path d="M66.9604 13.5509C67.5231 16.9841 68.7187 20.2565 68.0583 23.0974C67.5243 25.3949 65.0667 28.2498 62.8898 28.8801C60.6869 29.5178 57.4368 28.2482 55.29 26.8348C53.5367 25.6805 52.3769 23.218 51.5788 21.1001C49.6246 15.9143 51.6015 10.769 55.9728 8.71741C59.7615 6.9393 63.3702 8.43569 66.9604 13.5509Z" fill="#1D0D05"></path>
<path d="M41.3221 27.101C38.9622 31.1997 35.6024 32.2378 31.723 30.9213C27.9363 29.6363 26.5363 26.4178 26.5374 22.6131C26.5386 18.2025 28.0247 14.4724 31.8347 11.8957C37.411 8.1247 43.2207 10.8033 43.3951 17.598C43.4731 20.6344 42.1764 23.706 41.3221 27.101Z" fill="#1D0D05"></path>
</svg><style>@media (prefers-color-scheme: light) { :root { filter: none; } }
@media (prefers-color-scheme: dark) { :root { filter: invert(100%); } }
</style></svg>